<svg width="48" height="48" viewBox="0 0 48 48" fill="none" xmlns="http://www.w3.org/2000/svg">
<path d="M24 2.5C24.3978 2.5 24.7794 2.65804 25.0607 2.93934C25.342 3.22064 25.5 3.60218 25.5 4V6C25.5 6.39782 25.342 6.77936 25.0607 7.06066C24.7794 7.34196 24.3978 7.5 24 7.5C23.6022 7.5 23.2206 7.34196 22.9393 7.06066C22.658 6.77936 22.5 6.39782 22.5 6V4C22.5 3.60218 22.658 3.22064 22.9393 2.93934C23.2206 2.65804 23.6022 2.5 24 2.5Z" fill="#6E7289"/>
<path fill-rule="evenodd" clip-rule="evenodd" d="M12.5 24C12.5 20.95 13.7116 18.0249 15.8683 15.8683C18.0249 13.7116 20.95 12.5 24 12.5C27.05 12.5 29.9751 13.7116 32.1317 15.8683C34.2884 18.0249 35.5 20.95 35.5 24C35.5 27.05 34.2884 29.9751 32.1317 32.1317C29.9751 34.2884 27.05 35.5 24 35.5C20.95 35.5 18.0249 34.2884 15.8683 32.1317C13.7116 29.9751 12.5 27.05 12.5 24ZM24 15.5C22.8838 15.5 21.7785 15.7199 20.7472 16.147C19.7159 16.5742 18.7789 17.2003 17.9896 17.9896C17.2003 18.7789 16.5742 19.7159 16.147 20.7472C15.7199 21.7785 15.5 22.8838 15.5 24C15.5 25.1162 15.7199 26.2215 16.147 27.2528C16.5742 28.2841 17.2003 29.2211 17.9896 30.0104C18.7789 30.7997 19.7159 31.4258 20.7472 31.853C21.7785 32.2801 22.8838 32.5 24 32.5C26.2543 32.5 28.4163 31.6045 30.0104 30.0104C31.6045 28.4163 32.5 26.2543 32.5 24C32.5 21.7457 31.6045 19.5837 30.0104 17.9896C28.4163 16.3955 26.2543 15.5 24 15.5Z" fill="#6E7289"/>
<path d="M10.92 8.79799C10.6372 8.52462 10.2584 8.37325 9.8651 8.37648C9.4718 8.37971 9.0955 8.53729 8.81726 8.81527C8.53901 9.09325 8.38108 9.4694 8.37748 9.86269C8.37388 10.256 8.52489 10.635 8.798 10.918L10.212 12.332C10.3493 12.4794 10.5149 12.5976 10.6989 12.6796C10.8829 12.7615 11.0815 12.8056 11.283 12.8092C11.4844 12.8127 11.6844 12.7757 11.8712 12.7002C12.058 12.6248 12.2276 12.5125 12.3701 12.3701C12.5125 12.2276 12.6248 12.058 12.7002 11.8712C12.7757 11.6844 12.8127 11.4844 12.8092 11.2829C12.8056 11.0815 12.7615 10.8829 12.6796 10.6989C12.5976 10.5149 12.4794 10.3493 12.332 10.212L10.92 8.79799ZM45.5 24C45.5 24.3978 45.342 24.7793 45.0607 25.0607C44.7794 25.342 44.3978 25.5 44 25.5H42C41.6022 25.5 41.2206 25.342 40.9393 25.0607C40.658 24.7793 40.5 24.3978 40.5 24C40.5 23.6022 40.658 23.2206 40.9393 22.9393C41.2206 22.658 41.6022 22.5 42 22.5H44C44.3978 22.5 44.7794 22.658 45.0607 22.9393C45.342 23.2206 45.5 23.6022 45.5 24ZM39.202 10.92C39.3453 10.7817 39.4597 10.6162 39.5384 10.4333C39.6171 10.2503 39.6585 10.0535 39.6604 9.85431C39.6622 9.65515 39.6243 9.45761 39.549 9.27323C39.4737 9.08885 39.3624 8.92132 39.2216 8.78042C39.0808 8.63951 38.9134 8.52805 38.7291 8.45255C38.5448 8.37704 38.3473 8.33899 38.1481 8.34063C37.9489 8.34226 37.7521 8.38355 37.569 8.46208C37.386 8.5406 37.2204 8.6548 37.082 8.79799L35.668 10.212C35.5206 10.3493 35.4024 10.5149 35.3204 10.6989C35.2385 10.8829 35.1944 11.0815 35.1908 11.2829C35.1873 11.4844 35.2243 11.6844 35.2998 11.8712C35.3752 12.058 35.4875 12.2276 35.6299 12.3701C35.7724 12.5125 35.942 12.6248 36.1288 12.7002C36.3156 12.7757 36.5156 12.8127 36.717 12.8092C36.9184 12.8056 37.1171 12.7615 37.3011 12.6796C37.4851 12.5976 37.6507 12.4794 37.788 12.332L39.202 10.92ZM24 40.5C24.3978 40.5 24.7794 40.658 25.0607 40.9393C25.342 41.2206 25.5 41.6022 25.5 42V44C25.5 44.3978 25.342 44.7794 25.0607 45.0607C24.7794 45.342 24.3978 45.5 24 45.5C23.6022 45.5 23.2206 45.342 22.9393 45.0607C22.658 44.7794 22.5 44.3978 22.5 44V42C22.5 41.6022 22.658 41.2206 22.9393 40.9393C23.2206 40.658 23.6022 40.5 24 40.5ZM37.788 35.668C37.6507 35.5206 37.4851 35.4024 37.3011 35.3204C37.1171 35.2384 36.9184 35.1944 36.717 35.1908C36.5156 35.1873 36.3156 35.2243 36.1288 35.2997C35.942 35.3752 35.7724 35.4875 35.6299 35.6299C35.4875 35.7724 35.3752 35.942 35.2998 36.1288C35.2243 36.3156 35.1873 36.5156 35.1908 36.717C35.1944 36.9184 35.2385 37.1171 35.3204 37.3011C35.4024 37.4851 35.5206 37.6507 35.668 37.788L37.082 39.202C37.2193 39.3494 37.3849 39.4676 37.5689 39.5496C37.7529 39.6315 37.9515 39.6756 38.153 39.6792C38.3544 39.6827 38.5544 39.6457 38.7412 39.5702C38.928 39.4948 39.0976 39.3825 39.2401 39.2401C39.3825 39.0976 39.4948 38.928 39.5702 38.7412C39.6457 38.5544 39.6827 38.3544 39.6792 38.1529C39.6756 37.9515 39.6315 37.7529 39.5496 37.5689C39.4676 37.3849 39.3494 37.2193 39.202 37.082L37.788 35.668ZM7.5 24C7.5 24.3978 7.34196 24.7793 7.06066 25.0607C6.77936 25.342 6.39782 25.5 6 25.5H4C3.60218 25.5 3.22064 25.342 2.93934 25.0607C2.65804 24.7793 2.5 24.3978 2.5 24C2.5 23.6022 2.65804 23.2206 2.93934 22.9393C3.22064 22.658 3.60218 22.5 4 22.5H6C6.39782 22.5 6.77936 22.658 7.06066 22.9393C7.34196 23.2206 7.5 23.6022 7.5 24ZM12.332 37.788C12.597 37.5036 12.7412 37.1276 12.7344 36.739C12.7275 36.3503 12.5701 35.9796 12.2952 35.7048C12.0204 35.4299 11.6496 35.2725 11.261 35.2656C10.8724 35.2588 10.4963 35.403 10.212 35.668L8.798 37.082C8.53304 37.3663 8.38879 37.7424 8.39565 38.131C8.40251 38.5196 8.55993 38.8904 8.83476 39.1652C9.10958 39.4401 9.48035 39.5975 9.86895 39.6043C10.2576 39.6112 10.6336 39.467 10.918 39.202L12.332 37.788Z" fill="#6E7289"/>
</svg>
