<svg width="32" height="31" viewBox="0 0 32 31" fill="none" xmlns="http://www.w3.org/2000/svg">
<path d="M12.0809 21.1471C11.2998 21.9275 10.034 21.9272 9.25317 21.1465L6.04672 17.94C5.52703 17.4203 4.68491 17.4188 4.16339 17.9367C3.63926 18.4571 3.63776 19.3044 4.16005 19.8267L9.2525 24.9191C10.0335 25.7002 11.2999 25.7002 12.0809 24.9191L25.7265 11.2736C26.2458 10.7543 26.2458 9.91238 25.7265 9.39311C25.2074 8.87401 24.3658 8.87381 23.8465 9.39267L12.0809 21.1471Z" fill="black"/>
<path d="M11.6238 13.7827C11.2332 14.173 10.6003 14.1728 10.2099 13.7824L7.7404 11.3129C7.38311 10.9556 6.80416 10.9546 6.44561 11.3106C6.08527 11.6685 6.08424 12.2509 6.44332 12.61L10.2095 16.3762C10.6001 16.7668 11.2332 16.7668 11.6238 16.3762L21.2702 6.72975C21.6272 6.37275 21.6272 5.79394 21.2702 5.43695C20.9134 5.08007 20.3348 5.07993 19.9777 5.43664L11.6238 13.7827Z" fill="black"/>
</svg>
