<svg width="32" height="33" viewBox="0 0 32 33" fill="none" xmlns="http://www.w3.org/2000/svg">
<path d="M11.767 23.3954C10.9858 24.1758 9.72001 24.1755 8.93923 23.3947L5.86866 20.3241C5.36426 19.8197 4.5469 19.8183 4.04072 20.3209C3.53201 20.826 3.53055 21.6484 4.03748 22.1553L8.93856 27.0564C9.71961 27.8374 10.9859 27.8374 11.767 27.0564L24.9696 13.8537C25.4736 13.3497 25.4736 12.5326 24.9696 12.0286C24.4658 11.5248 23.649 11.5246 23.1449 12.0282L11.767 23.3954Z" fill="black"/>
<path d="M11.3031 16.2684C10.9125 16.6586 10.2796 16.6584 9.88924 16.268L7.51319 13.892C7.16641 13.5452 6.60448 13.5442 6.25648 13.8898C5.90674 14.237 5.90574 14.8024 6.25425 15.1509L9.88891 18.7856C10.2794 19.1761 10.9126 19.1761 11.3031 18.7856L20.6451 9.44359C20.9916 9.09709 20.9916 8.53531 20.6451 8.18881C20.2987 7.84243 19.7372 7.84229 19.3906 8.18851L11.3031 16.2684Z" fill="black"/>
</svg>
