<svg width="49" height="49" viewBox="0 0 49 49" fill="none" xmlns="http://www.w3.org/2000/svg">
<g clip-path="url(#clip0_34_2634)">
<path d="M6.12494 7.65641V1.53126C6.12494 0.684791 6.80973 0 7.6564 0C8.50267 0 9.18746 0.684791 9.18746 1.53126V7.65641C9.18746 8.50268 8.50267 9.18747 7.6564 9.18747C6.80973 9.18758 6.12494 8.50268 6.12494 7.65641ZM32.1564 9.18758C33.0025 9.18758 33.6877 8.50278 33.6877 7.65652V1.53126C33.6877 0.684791 33.0025 0 32.1564 0C31.31 0 30.6247 0.684791 30.6247 1.53126V7.65641C30.6247 8.50268 31.31 9.18758 32.1564 9.18758ZM48.9998 36.7497C48.9998 43.5154 43.515 49.0001 36.7498 49.0001C29.9851 49.0001 24.4999 43.5154 24.4999 36.7497C24.4999 29.985 29.985 24.5 36.7498 24.5C43.515 24.5 48.9998 29.9849 48.9998 36.7497ZM45.9377 36.7497C45.9377 31.6841 41.8164 27.5623 36.7499 27.5623C31.6838 27.5623 27.5626 31.684 27.5626 36.7497C27.5626 41.8163 31.6838 45.9375 36.7499 45.9375C41.8164 45.9375 45.9377 41.8163 45.9377 36.7497ZM12.2501 18.3751H6.12494V24.5H12.2501V18.3751ZM6.12494 33.6876H12.2501V27.5623H6.12494V33.6876ZM15.3124 24.5H21.4376V18.3751H15.3124V24.5ZM15.3124 33.6876H21.4376V27.5623H15.3124V33.6876ZM3.06262 36.4452V15.3124H36.7499V21.4376H39.8125V9.49276C39.8125 7.63248 38.3288 6.12495 36.4958 6.12495H35.2187V7.65652C35.2187 9.3431 33.8456 10.7189 32.1565 10.7189C30.4669 10.7189 29.094 9.3431 29.094 7.65652V6.12495H10.7186V7.65652C10.7186 9.3431 9.3459 10.7189 7.6565 10.7189C5.96669 10.7189 4.59388 9.3431 4.59388 7.65652V6.12495H3.31822C1.48511 6.12495 0 7.63248 0 9.49276V36.4453C0 38.2994 1.48511 39.8128 3.31822 39.8128H21.4376V36.7498H3.31822C3.17946 36.7497 3.06262 36.6064 3.06262 36.4452ZM30.6247 24.5V18.3751H24.5V24.5H30.6247ZM41.3437 36.7497H36.7498V32.1558C36.7498 31.3098 36.065 30.625 35.2186 30.625C34.3721 30.625 33.6877 31.3098 33.6877 32.1558V38.2815C33.6877 39.1275 34.3721 39.8127 35.2186 39.8127H41.3437C42.1902 39.8127 42.875 39.1275 42.875 38.2815C42.875 37.435 42.1902 36.7497 41.3437 36.7497Z" fill="black"/>
</g>
<defs>
<clipPath id="clip0_34_2634">
<rect width="49" height="49" fill="white"/>
</clipPath>
</defs>
</svg>
