<svg width="87" height="87" viewBox="0 0 87 87" fill="none" xmlns="http://www.w3.org/2000/svg">
<path d="M76.125 43.5001C76.1251 36.6832 73.9899 30.0375 70.0193 24.4964C66.0486 18.9552 60.442 14.7971 53.9868 12.6059C47.5317 10.4147 40.5523 10.3005 34.029 12.2795C27.5056 14.2584 21.766 18.231 17.6163 23.6394C13.4666 29.0477 11.1152 35.62 10.8924 42.4333C10.6697 49.2466 12.5867 55.9585 16.3742 61.6263C20.1618 67.2942 25.6296 71.6333 32.0097 74.0341C38.3898 76.435 45.3618 76.7771 51.9463 75.0122" stroke="#6A6A6A" stroke-width="4" stroke-linecap="round"/>
<path d="M43.5 58C51.5081 58 58 51.5081 58 43.5C58 35.4919 51.5081 29 43.5 29C35.4919 29 29 35.4919 29 43.5C29 51.5081 35.4919 58 43.5 58Z" stroke="#6A6A6A" stroke-width="4"/>
<path d="M58 32.625V48.9375C58 51.341 58.9548 53.6461 60.6543 55.3457C62.3539 57.0452 64.659 58 67.0625 58C69.466 58 71.7711 57.0452 73.4707 55.3457C75.1702 53.6461 76.125 51.341 76.125 48.9375V43.5" stroke="#6A6A6A" stroke-width="4" stroke-linecap="round"/>
</svg>
