<svg width="40" height="40" viewBox="0 0 40 40" fill="none" xmlns="http://www.w3.org/2000/svg">
<path d="M20 5H8.33333C7.44928 5 6.60143 5.35119 5.97631 5.97631C5.35119 6.60143 5 7.44928 5 8.33333V31.6667C5 32.5507 5.35119 33.3986 5.97631 34.0237C6.60143 34.6488 7.44928 35 8.33333 35H31.6667C32.5507 35 33.3986 34.6488 34.0237 34.0237C34.6488 33.3986 35 32.5507 35 31.6667V20" stroke="black" stroke-width="4" stroke-linecap="round" stroke-linejoin="round"/>
<path d="M30.6255 4.37501C31.2885 3.71197 32.1878 3.33948 33.1255 3.33948C34.0632 3.33948 34.9624 3.71197 35.6255 4.37501C36.2885 5.03805 36.661 5.93733 36.661 6.87501C36.661 7.81269 36.2885 8.71197 35.6255 9.37501L20.6038 24.3983C20.2081 24.7938 19.7192 25.0832 19.1821 25.24L14.3938 26.64C14.2504 26.6818 14.0984 26.6843 13.9537 26.6473C13.8089 26.6102 13.6769 26.5349 13.5712 26.4293C13.4656 26.3236 13.3903 26.1915 13.3532 26.0468C13.3161 25.9021 13.3187 25.7501 13.3605 25.6067L14.7605 20.8183C14.918 20.2818 15.208 19.7934 15.6038 19.3983L30.6255 4.37501Z" stroke="black" stroke-width="4" stroke-linecap="round" stroke-linejoin="round"/>
</svg>
