<svg width="40" height="40" viewBox="0 0 40 40" fill="none" xmlns="http://www.w3.org/2000/svg">
<path d="M20.0003 5C20.4251 5.00047 20.8337 5.16313 21.1426 5.45475C21.4515 5.74636 21.6374 6.14492 21.6623 6.56899C21.6872 6.99306 21.5492 7.41063 21.2766 7.73639C21.0039 8.06214 20.6172 8.27149 20.1953 8.32167L20.0003 8.33333H11.667C11.2588 8.33339 10.8648 8.48326 10.5597 8.75453C10.2546 9.02579 10.0598 9.39958 10.012 9.805L10.0003 10V30C10.0004 30.4082 10.1503 30.8022 10.4215 31.1073C10.6928 31.4123 11.0666 31.6072 11.472 31.655L11.667 31.6667H19.167C19.5918 31.6671 20.0004 31.8298 20.3093 32.1214C20.6182 32.413 20.8041 32.8116 20.8289 33.2357C20.8538 33.6597 20.7159 34.0773 20.4432 34.4031C20.1706 34.7288 19.7838 34.9382 19.362 34.9883L19.167 35H11.667C10.3916 35.0001 9.16447 34.5128 8.23656 33.6379C7.30865 32.7629 6.75015 31.5665 6.67533 30.2933L6.66699 30V10C6.66692 8.72465 7.1542 7.49748 8.02913 6.56957C8.90406 5.64166 10.1005 5.08315 11.3737 5.00833L11.667 5H20.0003ZM29.512 14.1067L34.2253 18.8217C34.5378 19.1342 34.7133 19.5581 34.7133 20C34.7133 20.4419 34.5378 20.8658 34.2253 21.1783L29.512 25.8933C29.1993 26.2058 28.7752 26.3813 28.3331 26.3812C27.891 26.381 27.467 26.2052 27.1545 25.8925C26.842 25.5798 26.6665 25.1557 26.6667 24.7136C26.6668 24.2715 26.8426 23.8475 27.1553 23.535L29.0237 21.6667H20.0003C19.5583 21.6667 19.1344 21.4911 18.8218 21.1785C18.5093 20.8659 18.3337 20.442 18.3337 20C18.3337 19.558 18.5093 19.134 18.8218 18.8215C19.1344 18.5089 19.5583 18.3333 20.0003 18.3333H29.0237L27.1553 16.465C26.8426 16.1525 26.6668 15.7285 26.6667 15.2864C26.6665 14.8443 26.842 14.4202 27.1545 14.1075C27.467 13.7948 27.891 13.619 28.3331 13.6188C28.7752 13.6187 29.1993 13.7942 29.512 14.1067Z" fill="black"/>
</svg>
