<svg width="54" height="54" viewBox="0 0 54 54" fill="none" xmlns="http://www.w3.org/2000/svg">
<path d="M27 49.5C29.475 49.5 31.5 47.475 31.5 45H22.5C22.5 47.475 24.525 49.5 27 49.5ZM40.5 37V24.75C40.5 17.8425 36.8325 12.06 30.375 10.53V9C30.375 7.1325 28.8675 5.625 27 5.625C25.1325 5.625 23.625 7.1325 23.625 9V10.53C17.19 12.06 13.5 17.82 13.5 24.75V37L9 40.5V42.75H45V40.5L40.5 37ZM37 39.25H27H17V24.75C17 19.17 21.3975 13.625 27 13.625C32.6025 13.625 37 19.17 37 24.75V39.25Z" fill="#6E7289"/>
</svg>
