<svg width="63" height="63" viewBox="0 0 63 63" fill="none" xmlns="http://www.w3.org/2000/svg">
<path d="M40.6873 19.6875L46.7248 25.725C47.2155 26.206 47.8752 26.4754 48.5623 26.4754C49.2494 26.4754 49.9091 26.206 50.3998 25.725L55.9123 20.2125C56.3933 19.7218 56.6627 19.0621 56.6627 18.375C56.6627 17.6879 56.3933 17.0282 55.9123 16.5375L49.8748 10.5M55.1248 5.25L29.9248 30.45" stroke="#6A6A6A" stroke-width="4" stroke-linecap="round" stroke-linejoin="round"/>
<path d="M19.6875 55.125C27.6611 55.125 34.125 48.6611 34.125 40.6875C34.125 32.7139 27.6611 26.25 19.6875 26.25C11.7139 26.25 5.25 32.7139 5.25 40.6875C5.25 48.6611 11.7139 55.125 19.6875 55.125Z" stroke="#6A6A6A" stroke-width="4" stroke-linecap="round" stroke-linejoin="round"/>
</svg>
