<svg width="26" height="26" viewBox="0 0 26 26" fill="none" xmlns="http://www.w3.org/2000/svg">
<path d="M11.4356 14.4657C11.8239 14.8582 11.8239 15.4933 11.4356 15.885L3.40021 23.9906H8.03537C8.58623 23.9906 9.03066 24.4405 9.03066 24.9961C9.03066 25.5517 8.58623 26 8.03537 26H0.996094C0.446049 25.9992 0 25.5509 0 24.9961V17.8944C0 17.3404 0.446049 16.8905 0.996094 16.8905C1.54695 16.8905 1.993 17.3404 1.993 17.8944V22.5729L10.0284 14.4657C10.2226 14.2706 10.4777 14.1715 10.7312 14.1715C10.9855 14.1715 11.2406 14.2706 11.4356 14.4657ZM25.0031 0H17.9638C17.413 0 16.9677 0.448262 16.9677 1.00388C16.9677 1.55949 17.413 2.00939 17.9638 2.00939H22.599L14.4539 10.2256C14.0647 10.6181 14.0647 11.2533 14.4539 11.645C14.8423 12.0375 15.472 12.0375 15.8611 11.645L24.007 3.42793V8.10477C24.007 8.65875 24.453 9.10865 25.0039 9.10865C25.554 9.10865 26 8.65875 26 8.10477V1.00306C25.9992 0.448262 25.5531 0 25.0031 0Z" fill="black"/>
</svg>
