<svg width="286" height="286" viewBox="0 0 286 286" fill="none" xmlns="http://www.w3.org/2000/svg">
<path d="M143 23.8334C77.1844 23.8334 23.8335 77.1843 23.8335 143C23.8335 208.816 77.1844 262.167 143 262.167C208.816 262.167 262.167 208.816 262.167 143C262.167 77.1843 208.816 23.8334 143 23.8334Z" stroke="white" stroke-width="3" stroke-linecap="round" stroke-linejoin="round"/>
<path d="M50.8965 218.623C50.8965 218.623 77.4587 184.708 143 184.708C208.542 184.708 235.116 218.623 235.116 218.623M143 143C152.482 143 161.575 139.233 168.279 132.529C174.984 125.825 178.75 116.731 178.75 107.25C178.75 97.7685 174.984 88.6754 168.279 81.9709C161.575 75.2665 152.482 71.5 143 71.5C133.519 71.5 124.426 75.2665 117.721 81.9709C111.017 88.6754 107.25 97.7685 107.25 107.25C107.25 116.731 111.017 125.825 117.721 132.529C124.426 139.233 133.519 143 143 143Z" stroke="white" stroke-width="3" stroke-linecap="round" stroke-linejoin="round"/>
</svg>
