<svg width="74" height="43" viewBox="0 0 74 43" fill="none" xmlns="http://www.w3.org/2000/svg">
<path d="M41.686 29.9948V8.99475H45.706L54.646 23.8148H52.516L61.306 8.99475H65.296L65.356 29.9948H60.796L60.766 15.9848H61.606L54.586 27.7748H52.396L45.226 15.9848H46.246V29.9948H41.686Z" fill="#FF7700"/>
<path d="M11.7241 20.4884L21.2207 12.8648L30.7172 20.7707C31.0307 21.03 31.4242 21.1733 31.8313 21.1766C32.0911 21.177 32.3478 21.1203 32.5832 21.0105C32.8185 20.9007 33.0267 20.7405 33.193 20.5413C33.3419 20.363 33.4541 20.1571 33.5232 19.9355C33.5922 19.7138 33.6168 19.4807 33.5954 19.2496C33.574 19.0185 33.5072 18.7938 33.3987 18.5885C33.2902 18.3831 33.1422 18.2012 32.9631 18.0531L22.3525 9.22946C22.036 8.9699 21.6391 8.828 21.2295 8.828C20.8199 8.828 20.423 8.9699 20.1065 9.22946L9.49588 17.7531C9.31421 17.8987 9.16318 18.0787 9.05146 18.2828C8.93974 18.4868 8.86953 18.7109 8.84488 18.9422C8.82023 19.1734 8.84162 19.4072 8.90782 19.6301C8.97401 19.8531 9.08371 20.0608 9.23061 20.2413C9.37781 20.4213 9.55918 20.5705 9.7643 20.6804C9.96943 20.7903 10.1943 20.8586 10.4259 20.8816C10.6576 20.9045 10.8915 20.8816 11.1143 20.8141C11.3371 20.7467 11.5443 20.636 11.7241 20.4884Z" fill="#FF7700"/>
<path d="M22.3515 17.5891C22.035 17.3295 21.6381 17.1876 21.2285 17.1876C20.8189 17.1876 20.422 17.3295 20.1056 17.5891L9.4949 26.1127C9.31323 26.2583 9.1622 26.4383 9.05048 26.6424C8.93876 26.8465 8.86856 27.0705 8.84391 27.3018C8.81926 27.533 8.84064 27.7668 8.90684 27.9898C8.97304 28.2127 9.08273 28.4204 9.22963 28.6009C9.37557 28.7822 9.55597 28.9329 9.76047 29.0444C9.96496 29.1559 10.1895 29.226 10.4212 29.2506C10.653 29.2752 10.8873 29.2538 11.1107 29.1878C11.3341 29.1217 11.5422 29.0122 11.7231 28.8656L21.2197 21.2244L30.7162 29.1303C31.0297 29.3896 31.4232 29.5329 31.8303 29.5362C32.0901 29.5367 32.3468 29.4799 32.5822 29.3701C32.8175 29.2603 33.0258 29.1001 33.192 28.9009C33.3409 28.7226 33.4531 28.5167 33.5222 28.2951C33.5912 28.0734 33.6158 27.8403 33.5944 27.6092C33.5731 27.3781 33.5062 27.1534 33.3977 26.9481C33.2892 26.7428 33.1412 26.5608 32.9621 26.4127L22.3515 17.5891Z" fill="#FF7700"/>
</svg>
