<svg width="67" height="34" viewBox="0 0 67 34" fill="none" xmlns="http://www.w3.org/2000/svg">
<path d="M39.9574 28.0022V7.0022H44.8174V24.0422H55.3474V28.0022H39.9574Z" fill="#00C832"/>
<g clip-path="url(#clip0_2004_39)">
<rect width="33.0143" height="33.0668" fill="white"/>
<path d="M6.90955 21.7838L16.7588 14.3012L26.6081 22.0609C26.9332 22.3153 27.3413 22.456 27.7636 22.4593C28.033 22.4597 28.2993 22.404 28.5434 22.2962C28.7875 22.1885 29.0034 22.0312 29.1759 21.8357C29.3303 21.6607 29.4467 21.4586 29.5183 21.2411C29.5899 21.0235 29.6154 20.7948 29.5932 20.5679C29.5711 20.341 29.5017 20.1205 29.3892 19.919C29.2767 19.7175 29.1232 19.5389 28.9374 19.3935L17.9327 10.7331C17.6045 10.4784 17.1928 10.3391 16.768 10.3391C16.3432 10.3391 15.9315 10.4784 15.6033 10.7331L4.59855 19.099C4.41013 19.242 4.25349 19.4187 4.13762 19.619C4.02175 19.8193 3.94894 20.0392 3.92338 20.2661C3.89781 20.4931 3.91999 20.7226 3.98865 20.9414C4.0573 21.1602 4.17108 21.3641 4.32343 21.5413C4.4761 21.7179 4.6642 21.8644 4.87695 21.9722C5.08969 22.0801 5.32289 22.1472 5.56316 22.1697C5.80344 22.1922 6.04606 22.1697 6.2771 22.1035C6.50815 22.0373 6.72308 21.9286 6.90955 21.7838Z" fill="#00C832"/>
</g>
<defs>
<clipPath id="clip0_2004_39">
<rect width="33.0143" height="33.0668" fill="white"/>
</clipPath>
</defs>
</svg>
