<svg width="65" height="38" viewBox="0 0 65 38" fill="none" xmlns="http://www.w3.org/2000/svg">
<path d="M49.2949 8H54.1549V29H49.2949V8ZM39.7549 29H34.8949V8H39.7549V29ZM49.6549 20.39H39.3949V16.28H49.6549V20.39Z" fill="#FF0000"/>
<g clip-path="url(#clip0_2004_423)">
<rect width="25.0108" height="29.0286" transform="translate(0 2.32227)" fill="white"/>
<path d="M3.14794 30.5816L12.6445 22.2214L22.141 30.8913C22.4545 31.1756 22.848 31.3328 23.2551 31.3364C23.5149 31.3368 23.7717 31.2747 24.007 31.1542C24.2424 31.0338 24.4506 30.8582 24.6168 30.6397C24.7658 30.4441 24.8779 30.2184 24.947 29.9753C25.016 29.7322 25.0406 29.4766 25.0192 29.2232C24.9979 28.9697 24.931 28.7233 24.8225 28.4982C24.714 28.273 24.566 28.0735 24.3869 27.911L13.7763 18.2348C13.4599 17.9502 13.0629 17.7946 12.6533 17.7946C12.2437 17.7946 11.8468 17.9502 11.5304 18.2348L0.919703 27.582C0.738037 27.7417 0.587004 27.9391 0.475284 28.1629C0.363565 28.3867 0.293363 28.6324 0.268712 28.886C0.244061 29.1396 0.265449 29.396 0.331645 29.6405C0.39784 29.885 0.507539 30.1128 0.654437 30.3107C0.801639 30.5081 0.983006 30.6717 1.18813 30.7922C1.39326 30.9127 1.6181 30.9877 1.84977 31.0128C2.08144 31.038 2.31537 31.0129 2.53815 30.9389C2.76092 30.8649 2.96815 30.7435 3.14794 30.5816Z" fill="#FF0000"/>
<path d="M3.14794 22.8454L12.6445 14.4852L22.141 23.1551C22.4545 23.4394 22.848 23.5966 23.2551 23.6002C23.5149 23.6006 23.7717 23.5385 24.007 23.418C24.2424 23.2976 24.4506 23.122 24.6168 22.9035C24.7658 22.7079 24.8779 22.4822 24.947 22.2391C25.016 21.996 25.0406 21.7404 25.0192 21.487C24.9979 21.2335 24.931 20.9871 24.8225 20.7619C24.714 20.5368 24.566 20.3373 24.3869 20.1748L13.7763 10.4986C13.4599 10.214 13.0629 10.0583 12.6533 10.0583C12.2437 10.0583 11.8468 10.214 11.5304 10.4986L0.919703 19.8458C0.738037 20.0055 0.587004 20.2029 0.475284 20.4267C0.363565 20.6505 0.293363 20.8962 0.268712 21.1498C0.244061 21.4034 0.265449 21.6598 0.331645 21.9043C0.39784 22.1488 0.507539 22.3766 0.654437 22.5745C0.801639 22.7719 0.983006 22.9355 1.18813 23.056C1.39326 23.1765 1.6181 23.2515 1.84977 23.2766C2.08144 23.3018 2.31537 23.2767 2.53815 23.2027C2.76092 23.1287 2.96815 23.0073 3.14794 22.8454Z" fill="#FF0000"/>
<path d="M3.14794 15.1094L12.6445 6.74911L22.141 15.419C22.4545 15.7033 22.848 15.8605 23.2551 15.8641C23.5149 15.8646 23.7717 15.8024 24.007 15.682C24.2424 15.5615 24.4506 15.3859 24.6168 15.1674C24.7658 14.9719 24.8779 14.7461 24.947 14.503C25.016 14.2599 25.0406 14.0043 25.0192 13.7509C24.9979 13.4974 24.931 13.251 24.8225 13.0259C24.714 12.8007 24.566 12.6012 24.3869 12.4387L13.7763 2.76251C13.4599 2.47787 13.0629 2.32227 12.6533 2.32227C12.2437 2.32227 11.8468 2.47787 11.5304 2.76251L0.919703 12.1097C0.738037 12.2694 0.587004 12.4668 0.475284 12.6906C0.363565 12.9144 0.293363 13.1602 0.268712 13.4137C0.244061 13.6673 0.265449 13.9237 0.331645 14.1682C0.39784 14.4127 0.507539 14.6405 0.654437 14.8384C0.801639 15.0358 0.983006 15.1994 1.18813 15.3199C1.39326 15.4404 1.6181 15.5154 1.84977 15.5406C2.08144 15.5657 2.31537 15.5406 2.53815 15.4666C2.76092 15.3926 2.96815 15.2712 3.14794 15.1094Z" fill="#FF0000"/>
</g>
<defs>
<clipPath id="clip0_2004_423">
<rect width="25.0108" height="29.0286" fill="white" transform="translate(0 2.32227)"/>
</clipPath>
</defs>
</svg>
